<svg width="248" height="51" viewBox="0 0 248 51" fill="none" xmlns="http://www.w3.org/2000/svg">
<path d="M26.792 13.976C27.3467 16.7067 27.3467 19.3947 26.792 22.04C26.2373 24.6427 25.1493 27.032 23.528 29.208C22.9733 30.3173 22.2267 31.0213 21.288 31.32C20.3493 31.6187 19.3253 31.768 18.216 31.768C17.96 31.768 17.5973 31.7893 17.128 31.832C16.6587 31.832 16.168 31.8747 15.656 31.96C15.1867 32.0027 14.7173 32.0667 14.248 32.152C13.8213 32.1947 13.48 32.2587 13.224 32.344L13.48 36.952C13.48 37.3787 13.4373 37.8267 13.352 38.296C13.2667 38.7653 13.1813 39.192 13.096 39.576C13.0107 40.088 12.9893 40.5147 13.032 40.856C13.0747 41.24 13.0533 41.688 12.968 42.2C12.8827 42.712 12.7973 43.2453 12.712 43.8C12.6693 44.3547 12.648 44.9307 12.648 45.528C12.0933 44.6747 11.6027 43.5013 11.176 42.008C10.7493 40.5573 10.3653 38.936 10.024 37.144C9.72533 35.3093 9.46933 33.4107 9.256 31.448C9.04267 29.4853 8.85067 27.5867 8.68 25.752C8.552 23.9173 8.44533 22.232 8.36 20.696C8.31733 19.1173 8.27467 17.8587 8.232 16.92C7.42133 17.2613 6.61067 17.688 5.8 18.2C4.98933 18.712 4.22133 19.2027 3.496 19.672C3.28267 19.8427 3.048 19.864 2.792 19.736C2.57867 19.608 2.36533 19.608 2.152 19.736C1.98133 19.9067 1.81067 19.992 1.64 19.992C1.512 19.992 1.384 19.9493 1.256 19.864C1.128 19.7787 1.02133 19.6933 0.936 19.608C0.850667 19.48 0.765333 19.416 0.68 19.416C0.594667 19.16 0.573333 18.9893 0.616 18.904C0.658667 18.776 0.68 18.6267 0.68 18.456C0.722667 18.2 0.765333 17.9653 0.808 17.752C0.808 17.496 0.914667 17.2827 1.128 17.112C3.688 15.064 6.09867 13.528 8.36 12.504C10.6213 11.4373 12.712 10.6693 14.632 10.2C16.68 9.64533 18.536 9.496 20.2 9.752C21.864 9.96533 23.5067 10.8187 25.128 12.312C25.5973 12.44 25.9813 12.632 26.28 12.888C26.6213 13.1013 26.792 13.464 26.792 13.976ZM23.656 15.256C23.1867 14.616 22.5467 14.168 21.736 13.912C20.9253 13.656 20.008 13.5493 18.984 13.592C17.96 13.6347 16.8933 13.8053 15.784 14.104C14.7173 14.36 13.6933 14.7013 12.712 15.128C12.712 15.896 12.712 16.856 12.712 18.008C12.712 19.1173 12.712 20.312 12.712 21.592C12.7547 22.8293 12.7973 24.088 12.84 25.368C12.9253 26.6053 13.0107 27.7573 13.096 28.824C13.736 28.6107 14.4613 28.4187 15.272 28.248C16.1253 28.0347 16.9573 27.8 17.768 27.544C18.6213 27.2453 19.4107 26.8827 20.136 26.456C20.904 26.0293 21.5227 25.432 21.992 24.664C22.248 24.1093 22.5253 23.4267 22.824 22.616C23.1653 21.7627 23.4427 20.888 23.656 19.992C23.8693 19.0533 23.976 18.1787 23.976 17.368C24.0187 16.5147 23.912 15.8107 23.656 15.256ZM54.4525 13.848C54.3672 14.0187 54.3672 14.1467 54.4525 14.232C54.5378 14.3173 54.5378 14.4027 54.4525 14.488C54.3245 14.5733 54.0898 14.6373 53.7485 14.68C53.4498 14.68 53.1938 14.7013 52.9805 14.744C52.6818 14.8293 52.3832 14.872 52.0845 14.872C51.7858 14.8293 51.4658 14.7013 51.1245 14.488C50.6125 14.232 49.9725 13.9973 49.2045 13.784C48.4792 13.528 47.6898 13.4 46.8365 13.4C45.7272 13.4 44.5538 13.528 43.3165 13.784C42.0792 13.9973 40.8845 14.3173 39.7325 14.744C38.6232 15.128 37.6205 15.6187 36.7245 16.216C35.8712 16.8133 35.2525 17.4747 34.8685 18.2C34.6125 18.7547 34.5058 19.352 34.5485 19.992C34.5912 20.5893 34.7405 21.1653 34.9965 21.72C35.2525 22.2747 35.5512 22.7867 35.8925 23.256C36.2765 23.6827 36.6392 23.9813 36.9805 24.152C38.0472 24.7067 39.2205 25.0693 40.5005 25.24C41.8232 25.4107 43.1672 25.5173 44.5325 25.56C45.9405 25.6027 47.3272 25.6667 48.6925 25.752C50.0578 25.8373 51.3165 26.0507 52.4685 26.392C53.0658 26.6053 53.6205 26.776 54.1325 26.904C54.6872 27.032 55.1778 27.224 55.6045 27.48C56.0312 27.6933 56.4152 28.0133 56.7565 28.44C57.1405 28.824 57.4605 29.4 57.7165 30.168C58.1005 31.7893 58.0152 33.368 57.4605 34.904C56.9058 36.4827 55.9885 37.8693 54.7085 39.064C53.4285 40.3013 51.9778 41.2827 50.3565 42.008C49.0765 42.5627 47.7538 42.9253 46.3885 43.096C45.0658 43.3093 43.7645 43.288 42.4845 43.032C41.2472 42.776 40.0952 42.2853 39.0285 41.56C38.0045 40.8347 37.1725 39.832 36.5325 38.552C36.1485 37.7413 35.9565 36.76 35.9565 35.608C35.9138 35.48 35.9138 35.352 35.9565 35.224C36.0418 34.9253 36.3192 34.776 36.7885 34.776C36.9592 34.6907 37.1725 34.7547 37.4285 34.968C37.7272 35.1387 37.9405 35.2453 38.0685 35.288C38.4098 35.3307 38.7298 35.5653 39.0285 35.992C39.3698 36.376 39.6898 36.696 39.9885 36.952C41.0552 38.0613 42.2498 38.744 43.5725 39C44.9378 39.2133 46.2392 39.2133 47.4765 39C48.7565 38.744 49.9298 38.36 50.9965 37.848C52.0632 37.336 52.8525 36.8667 53.3645 36.44C53.6632 36.184 53.9832 35.8853 54.3245 35.544C54.7085 35.16 55.0712 34.7547 55.4125 34.328C55.7538 33.8587 56.0312 33.368 56.2445 32.856C56.5005 32.344 56.6285 31.8107 56.6285 31.256C56.5005 30.744 56.1592 30.36 55.6045 30.104C55.0498 29.8053 54.3458 29.5707 53.4925 29.4C51.9992 29.144 50.5272 29.016 49.0765 29.016C47.6258 28.9733 46.1965 28.9733 44.7885 29.016C43.3805 29.0587 41.9938 29.08 40.6285 29.08C39.2632 29.08 37.9405 28.9307 36.6605 28.632C36.2765 28.5467 35.8925 28.4187 35.5085 28.248C35.1672 28.0347 34.8258 27.8213 34.4845 27.608C34.1432 27.3947 33.8872 27.1173 33.7165 26.776C33.5458 26.4347 33.3538 26.072 33.1405 25.688C32.9272 25.304 32.7138 24.92 32.5005 24.536C32.3298 24.1093 32.2018 23.6613 32.1165 23.192C31.9032 21.8267 31.9032 20.4187 32.1165 18.968C32.3725 17.5173 32.9272 16.1733 33.7805 14.936C34.4632 13.912 35.3805 13.0373 36.5325 12.312C37.7272 11.544 39.0498 10.968 40.5005 10.584C41.9938 10.1573 43.5725 9.96533 45.2365 10.008C46.9005 10.008 48.6072 10.264 50.3565 10.776C50.5698 10.8613 50.8258 10.9893 51.1245 11.16C51.4232 11.288 51.6792 11.3947 51.8925 11.48C52.4898 11.7787 53.0232 12.1413 53.4925 12.568C53.9618 12.9947 54.2818 13.4213 54.4525 13.848ZM65.379 5.464C65.1657 5.37866 64.8243 5.272 64.355 5.144C63.8857 4.97333 63.5657 4.71733 63.395 4.376C63.267 4.16267 63.1817 3.88533 63.139 3.544C63.0963 3.16 63.0963 2.88266 63.139 2.712C63.1817 2.54133 63.1603 2.37066 63.075 2.2C63.0323 2.02933 62.9897 1.85866 62.947 1.688C62.9043 1.47467 62.883 1.304 62.883 1.176C62.883 1.00533 62.9683 0.855998 63.139 0.727997C63.4803 0.471998 63.843 0.322665 64.227 0.279999C64.611 0.237333 64.9737 0.258666 65.315 0.343998C65.6563 0.386664 65.9337 0.471998 66.147 0.599998C66.3603 0.727999 66.467 0.855999 66.467 0.983997C66.5523 1.19733 66.6803 1.41066 66.851 1.624C67.0643 1.83733 67.1923 2.11466 67.235 2.456C67.2777 3.01066 67.3417 3.71466 67.427 4.568C67.555 5.37866 67.6617 6.232 67.747 7.128C67.8323 7.98133 67.875 8.83467 67.875 9.688C67.9177 10.4987 67.8963 11.1813 67.811 11.736C67.7257 12.12 67.5977 12.44 67.427 12.696C67.299 12.952 67.1497 13.2293 66.979 13.528C66.851 13.7413 66.7017 13.976 66.531 14.232C66.403 14.488 66.2963 14.7653 66.211 15.064C66.1257 15.2773 65.955 15.4907 65.699 15.704C65.443 15.9173 65.2083 16.024 64.995 16.024C64.8243 16.0667 64.6323 16.1307 64.419 16.216C64.2057 16.2587 64.0563 16.2373 63.971 16.152L64.419 15.128C64.6323 14.6587 64.803 14.0187 64.931 13.208C65.059 12.3547 65.1443 11.48 65.187 10.584C65.2723 9.64533 65.315 8.728 65.315 7.832C65.3577 6.89333 65.379 6.104 65.379 5.464ZM95.92 21.656C95.7067 22.296 95.536 22.7867 95.408 23.128C95.28 23.4693 95.088 23.512 94.832 23.256C94.2347 22.6587 93.5093 22.0187 92.656 21.336C91.8027 20.6533 90.7573 20.2267 89.52 20.056C88.7093 19.9707 87.8347 20.0773 86.896 20.376C86 20.632 85.3173 21.208 84.848 22.104C84.4213 22.872 84.3573 23.7893 84.656 24.856C84.912 25.9653 85.4667 26.776 86.32 27.288C87.216 27.7573 88.1973 28.1413 89.264 28.44C90.3733 28.696 91.4827 28.9307 92.592 29.144C93.744 29.3573 94.7253 29.7413 95.536 30.296C95.792 30.424 95.984 30.6373 96.112 30.936C96.2827 31.192 96.4533 31.4267 96.624 31.64C96.8373 31.896 97.0293 32.1093 97.2 32.28C97.4133 32.4507 97.6053 32.7067 97.776 33.048C97.904 33.304 98.0533 33.624 98.224 34.008C98.3947 34.3493 98.4373 34.7333 98.352 35.16C98.224 35.7147 97.6907 36.312 96.752 36.952C94.704 38.2747 92.5493 39.32 90.288 40.088C88.0267 40.8987 85.6373 41.048 83.12 40.536C82.8213 40.4507 82.48 40.152 82.096 39.64C81.712 39.1707 81.392 38.8507 81.136 38.68C80.4533 38.296 79.984 37.8053 79.728 37.208C79.3867 36.0987 79.216 34.8827 79.216 33.56C79.216 33.1333 79.28 32.9413 79.408 32.984C79.5787 32.984 79.728 32.984 79.856 32.984C80.112 32.984 80.3893 33.1547 80.688 33.496C81.0293 33.8373 81.3707 34.2427 81.712 34.712C82.096 35.1387 82.4373 35.544 82.736 35.928C83.0773 36.2693 83.3547 36.44 83.568 36.44C84.2933 36.7813 85.168 36.9733 86.192 37.016C87.216 37.0587 88.24 36.9733 89.264 36.76C90.3307 36.504 91.312 36.12 92.208 35.608C93.1467 35.0533 93.8933 34.3707 94.448 33.56C94.448 33.3467 94.192 33.0907 93.68 32.792C93.2107 32.4933 92.592 32.1733 91.824 31.832C91.056 31.448 90.2027 31.064 89.264 30.68C88.368 30.296 87.4933 29.8907 86.64 29.464C85.8293 29.0373 85.104 28.5893 84.464 28.12C83.8667 27.6507 83.4613 27.1813 83.248 26.712C83.12 26.3707 82.9707 26.0293 82.8 25.688C82.6293 25.304 82.5227 25.0267 82.48 24.856C82.2667 23.9173 82.224 23.0213 82.352 22.168C82.48 21.272 82.736 20.4827 83.12 19.8C83.504 19.1173 84.016 18.5627 84.656 18.136C85.296 17.6667 86.0213 17.368 86.832 17.24C88.112 17.0693 89.4773 17.0693 90.928 17.24C92.4213 17.368 93.744 17.8587 94.896 18.712C95.2373 19.0107 95.472 19.288 95.6 19.544C95.7707 19.8 95.8987 20.0987 95.984 20.44C96.0267 20.6533 96.0693 20.8667 96.112 21.08C96.1547 21.2507 96.0907 21.4427 95.92 21.656ZM157.112 19.672C155.789 19.8 154.552 19.9493 153.4 20.12C152.248 20.248 151.117 20.3973 150.007 20.568C148.941 20.696 147.853 20.8667 146.744 21.08C145.677 21.2933 144.568 21.528 143.416 21.784C143.373 22.7653 143.352 23.768 143.352 24.792C143.352 25.816 143.33 26.8613 143.288 27.928C143.288 28.2693 143.266 28.6747 143.224 29.144C143.224 29.5707 143.202 29.9973 143.16 30.424C143.16 30.8507 143.117 31.2133 143.032 31.512C142.989 31.8107 142.904 31.96 142.776 31.96C142.306 31.7893 141.965 31.4693 141.752 31C141.581 30.488 141.389 30.04 141.176 29.656C141.005 29.3147 140.834 29.0587 140.664 28.888C140.493 28.6747 140.386 28.376 140.344 27.992C140.13 26.2 139.938 24.1947 139.768 21.976C139.597 19.7147 139.554 17.368 139.64 14.936C138.786 16.088 137.762 17.368 136.568 18.776C135.373 20.184 134.136 21.6133 132.856 23.064C131.576 24.472 130.274 25.8587 128.952 27.224C127.672 28.5467 126.498 29.7413 125.432 30.808C125.218 31.1493 124.984 31.4053 124.728 31.576C124.514 31.7467 124.173 31.8747 123.704 31.96C123.448 32.0027 123.213 31.96 123 31.832C122.829 31.704 122.616 31.5973 122.36 31.512C122.104 31.4267 121.848 31.2773 121.592 31.064C121.378 30.808 121.208 30.5733 121.08 30.36C120.994 30.104 120.909 29.8693 120.824 29.656C120.738 29.4427 120.674 29.1867 120.632 28.888C120.418 27.352 120.312 25.6667 120.312 23.832C120.354 21.9547 120.61 20.12 121.08 18.328C121.421 17.4747 121.741 16.7067 122.04 16.024C122.338 15.2987 122.722 14.5733 123.192 13.848C123.277 13.7627 123.362 13.6987 123.448 13.656C123.576 13.5707 123.725 13.4853 123.896 13.4C123.981 13.3573 124.066 13.3147 124.152 13.272C124.237 13.1867 124.301 13.144 124.344 13.144L124.28 13.848C124.066 15.896 123.938 18.1147 123.896 20.504C123.853 22.8507 123.917 25.1333 124.088 27.352C124.77 26.84 125.688 26.1147 126.84 25.176C128.034 24.1947 129.336 23.1067 130.744 21.912C132.152 20.6747 133.624 19.3307 135.16 17.88C136.696 16.4293 138.21 14.936 139.704 13.4C139.789 12.12 139.896 10.8613 140.024 9.624C140.152 8.38666 140.344 7.192 140.6 6.04C140.77 5.35733 140.941 4.696 141.112 4.056C141.282 3.37333 141.496 2.712 141.752 2.072C141.922 2.072 142.029 2.11466 142.072 2.2C142.157 2.28533 142.242 2.34933 142.328 2.392C142.413 2.47733 142.498 2.54133 142.584 2.584C142.669 2.62667 142.733 2.79733 142.776 3.096C143.032 5.528 143.202 8.088 143.288 10.776C143.416 13.464 143.458 16.344 143.416 19.416C144.44 19.0747 145.357 18.7547 146.168 18.456C147.021 18.1147 147.832 17.8373 148.6 17.624C149.41 17.4107 150.242 17.2827 151.096 17.24C151.949 17.1547 152.909 17.1973 153.976 17.368C154.146 17.4107 154.317 17.5173 154.488 17.688C154.701 17.8587 154.914 17.9653 155.128 18.008C155.341 18.0933 155.533 18.1573 155.704 18.2C155.874 18.2427 156.045 18.3493 156.216 18.52C156.685 18.9893 156.984 19.3733 157.112 19.672ZM143.992 48.472C143.992 48.5573 143.928 48.6213 143.8 48.664C143.714 48.7493 143.629 48.8347 143.544 48.92C143.458 49.0053 143.373 49.112 143.288 49.24C143.245 49.368 143.181 49.432 143.096 49.432C142.797 49.6453 142.626 49.7093 142.584 49.624C142.584 49.5387 142.584 49.4533 142.584 49.368C142.712 46.8933 142.818 44.76 142.904 42.968C142.989 41.176 143.032 39.6827 143.032 38.488C141.538 38.7013 139.832 39.0427 137.912 39.512C136.034 40.024 134.264 40.6 132.6 41.24C132.344 41.112 132.152 40.8773 132.024 40.536C131.938 40.2373 131.853 39.9173 131.768 39.576C131.725 39.2773 131.725 39.0213 131.768 38.808C131.81 38.5947 131.896 38.4453 132.024 38.36C132.194 38.232 132.386 38.04 132.6 37.784C132.984 37.528 133.538 37.2293 134.264 36.888C134.989 36.504 135.778 36.1627 136.632 35.864C137.528 35.5653 138.466 35.3307 139.448 35.16C140.429 34.9893 141.389 34.968 142.328 35.096C142.669 35.1813 143.01 35.2667 143.352 35.352C143.693 35.4373 143.97 35.5653 144.184 35.736C144.525 35.992 144.717 36.312 144.76 36.696C144.845 37.0373 144.93 37.3787 145.016 37.72C145.101 38.0613 145.165 38.3813 145.208 38.68C145.293 38.9787 145.314 39.2773 145.272 39.576C145.101 41.0693 144.93 42.5413 144.76 43.992C144.589 45.4853 144.333 46.9787 143.992 48.472ZM196.607 19.16C196.607 20.4827 196.586 21.8907 196.543 23.384C196.543 24.8773 196.522 26.3707 196.479 27.864C196.436 29.3147 196.372 30.744 196.287 32.152C196.202 33.5173 196.095 34.7333 195.967 35.8L195.711 37.08C195.626 37.5493 195.583 37.9547 195.583 38.296C195.583 38.6373 195.54 38.936 195.455 39.192C195.242 39.576 195.092 39.768 195.007 39.768C194.922 39.6827 194.772 39.7253 194.559 39.896C194.388 40.0667 194.26 40.0667 194.175 39.896C194.09 39.7253 194.068 39.3627 194.111 38.808C194.154 38.2533 194.132 37.8693 194.047 37.656C193.578 36.248 193.258 34.5413 193.087 32.536C192.959 30.5307 192.895 28.44 192.895 26.264C190.676 27.5867 188.415 28.696 186.111 29.592C183.85 30.4453 181.887 30.9147 180.223 31C179.839 30.8293 179.412 30.744 178.943 30.744C178.474 30.7013 178.239 30.6373 178.239 30.552C178.196 30.424 178.218 30.232 178.303 29.976L178.559 29.336C178.644 29.1227 178.858 28.9307 179.199 28.76C179.583 28.5467 179.903 28.3973 180.159 28.312C180.586 28.2267 181.055 28.0133 181.567 27.672C182.122 27.288 182.612 27.032 183.039 26.904C183.722 26.6907 184.383 26.4987 185.023 26.328C185.706 26.1573 186.41 25.9653 187.135 25.752C187.903 25.496 188.735 25.2187 189.631 24.92C190.57 24.5787 191.658 24.152 192.895 23.64C192.938 22.4027 193.002 21.2507 193.087 20.184C193.172 19.0747 193.258 18.0933 193.343 17.24C193.386 16.9413 193.471 16.6853 193.599 16.472C193.727 16.2587 193.834 16.0453 193.919 15.832C194.004 15.4907 194.047 15.2133 194.047 15C194.09 14.744 194.154 14.5307 194.239 14.36C194.794 14.36 195.22 14.552 195.519 14.936C195.86 15.32 196.095 15.768 196.223 16.28C196.394 16.792 196.5 17.3253 196.543 17.88C196.586 18.4347 196.607 18.8613 196.607 19.16ZM176.511 11.928C175.316 13.2507 174.058 14.872 172.735 16.792C171.412 18.712 170.154 20.696 168.959 22.744C167.764 24.792 166.676 26.776 165.695 28.696C164.756 30.616 164.031 32.2373 163.519 33.56C163.434 33.688 163.263 33.8373 163.007 34.008C162.751 34.136 162.58 34.2427 162.495 34.328C162.324 34.5413 162.132 34.84 161.919 35.224C161.706 35.608 161.514 35.8427 161.343 35.928C161.215 36.0133 161.108 35.9067 161.023 35.608C160.98 35.2667 160.852 35.0107 160.639 34.84C160.426 34.6267 160.212 34.4133 159.999 34.2C159.786 33.944 159.594 33.7093 159.423 33.496C159.295 33.368 159.231 33.176 159.231 32.92C159.231 32.664 159.274 32.4293 159.359 32.216C159.402 32.0453 159.508 31.7467 159.679 31.32C159.85 30.9787 159.914 30.744 159.871 30.616C159.828 30.4453 159.892 30.1467 160.063 29.72C161.002 27.544 162.154 25.1973 163.519 22.68C164.884 20.1627 166.463 17.88 168.255 15.832C168.468 15.576 168.746 15.3413 169.087 15.128C169.428 14.872 169.791 14.6373 170.175 14.424C170.559 14.2107 170.922 13.9973 171.263 13.784C171.604 13.5707 171.903 13.3573 172.159 13.144C172.415 12.9307 172.735 12.7173 173.119 12.504C173.546 12.248 173.972 12.0347 174.399 11.864C174.868 11.6933 175.274 11.608 175.615 11.608C175.999 11.5653 176.298 11.672 176.511 11.928ZM174.079 45.848C173.098 42.392 172.5 38.8933 172.287 35.352C172.116 31.768 171.988 27.9707 171.903 23.96C171.903 23.6187 171.711 23.2773 171.327 22.936C170.986 22.552 170.751 22.168 170.623 21.784C170.538 21.528 170.58 21.272 170.751 21.016C170.922 20.76 171.114 20.5467 171.327 20.376C172.394 21.6987 173.119 23.128 173.503 24.664C173.887 26.1573 174.164 27.7787 174.335 29.528C174.506 31.2347 174.655 33.048 174.783 34.968C174.954 36.888 175.338 38.936 175.935 41.112C175.978 41.3253 176.063 41.368 176.191 41.24C176.319 41.1547 176.468 41.0053 176.639 40.792C176.81 40.6213 176.959 40.4507 177.087 40.28C177.215 40.1093 177.3 40.0453 177.343 40.088C177.386 40.1307 177.322 40.344 177.151 40.728C177.023 41.1547 176.852 41.6453 176.639 42.2C176.426 42.7547 176.191 43.3307 175.935 43.928C175.679 44.5253 175.466 45.016 175.295 45.4C175.039 45.784 174.783 46.0613 174.527 46.232C174.314 46.4027 174.164 46.2747 174.079 45.848ZM232.009 7.256C232.009 8.62133 231.988 10.0293 231.945 11.48C231.945 12.9307 231.924 14.4027 231.881 15.896C232.862 15.5973 233.95 15.2773 235.145 14.936C236.34 14.5947 237.577 14.296 238.857 14.04C240.137 13.784 241.417 13.6133 242.697 13.528C243.977 13.4 245.214 13.4213 246.409 13.592C246.878 13.72 247.198 13.8907 247.369 14.104C247.582 14.2747 247.476 14.6373 247.049 15.192C246.708 15.5333 246.409 15.768 246.153 15.896C245.94 15.9813 245.726 16.024 245.513 16.024C245.342 15.9813 245.15 15.9387 244.937 15.896C244.724 15.8533 244.489 15.8533 244.233 15.896C242.185 16.1947 240.094 16.5147 237.961 16.856C235.828 17.1973 233.78 17.6667 231.817 18.264C231.732 21.208 231.625 24.0667 231.497 26.84C231.369 29.5707 231.241 32.088 231.113 34.392C231.07 34.7333 231.049 35.0747 231.049 35.416C231.049 35.7147 231.028 35.9707 230.985 36.184C231.156 36.056 231.326 35.9493 231.497 35.864C231.71 35.736 231.881 35.6933 232.009 35.736C232.137 35.7787 232.244 35.864 232.329 35.992C232.414 36.12 232.478 36.2267 232.521 36.312C232.564 36.44 232.585 36.632 232.585 36.888C232.628 37.144 232.67 37.3147 232.713 37.4C232.798 37.6987 232.862 37.8907 232.905 37.976C232.99 38.0613 232.884 38.3387 232.585 38.808C232.286 39.192 232.116 39.448 232.073 39.576C232.329 39.704 232.606 39.7893 232.905 39.832C233.246 39.9173 233.545 40.0667 233.801 40.28C234.1 40.4933 234.42 40.7493 234.761 41.048C235.102 41.3893 235.358 41.688 235.529 41.944C235.742 42.4133 235.764 43.032 235.593 43.8C235.294 45.2933 234.59 46.6373 233.481 47.832C232.414 49.0267 231.241 49.9013 229.961 50.456C229.705 50.5413 229.47 50.5627 229.257 50.52C229.086 50.4773 228.894 50.456 228.681 50.456C228.382 50.456 228.084 50.4773 227.785 50.52C227.529 50.6053 227.316 50.5627 227.145 50.392C226.889 50.1787 226.74 49.9013 226.697 49.56C226.654 49.2187 226.59 48.8773 226.505 48.536C226.334 48.024 226.121 47.576 225.865 47.192C225.609 46.168 225.566 45.1867 225.737 44.248C225.908 43.3093 226.228 42.392 226.697 41.496C227.166 40.6427 227.742 39.8107 228.425 39C229.108 38.1467 229.812 37.336 230.537 36.568C230.409 36.44 230.26 36.2693 230.089 36.056C229.918 35.8 229.79 35.5867 229.705 35.416L229.385 33.88C229.257 33.5387 229.044 33.176 228.745 32.792C228.489 32.3653 228.318 31.9813 228.233 31.64C228.148 31.3413 228.02 31.064 227.849 30.808C227.678 30.5093 227.572 30.2107 227.529 29.912C227.316 28.632 227.23 26.8187 227.273 24.472C227.358 22.1253 227.486 19.608 227.657 16.92C227.828 14.1893 228.041 11.5013 228.297 8.856C228.553 6.21066 228.766 3.97066 228.937 2.136C228.937 1.88 229.065 1.60266 229.321 1.304C229.577 0.962666 229.79 0.855999 229.961 0.983997C230.132 1.112 230.26 1.368 230.345 1.752C230.473 2.136 230.644 2.47733 230.857 2.776C231.198 3.37333 231.454 4.03466 231.625 4.76C231.838 5.44266 231.966 6.27466 232.009 7.256ZM202.569 34.2C202.484 34.2853 202.42 34.3067 202.377 34.264C202.377 34.1787 202.377 34.0933 202.377 34.008C202.377 33.88 202.356 33.7733 202.313 33.688C202.313 33.6027 202.27 33.5813 202.185 33.624C202.1 33.368 202.036 33.176 201.993 33.048C201.95 32.92 201.886 32.7493 201.801 32.536C201.716 32.2373 201.694 31.9173 201.737 31.576C201.822 31.2347 201.865 30.9573 201.865 30.744C201.865 30.5307 201.822 30.3173 201.737 30.104C201.652 29.8907 201.652 29.7413 201.737 29.656C202.164 28.8453 202.825 27.8 203.721 26.52C204.617 25.24 205.62 23.8747 206.729 22.424C207.838 20.9307 209.012 19.4373 210.249 17.944C211.486 16.408 212.681 14.9787 213.833 13.656C212.041 14.04 210.1 14.5733 208.009 15.256C205.961 15.896 203.849 16.664 201.673 17.56C201.545 17.6453 201.502 17.56 201.545 17.304C201.63 17.0053 201.78 16.6427 201.993 16.216C202.164 15.7893 202.27 15.5333 202.313 15.448C202.356 15.3627 202.59 15.2133 203.017 15C205.065 13.9333 207.049 13.0587 208.969 12.376C210.889 11.6507 212.809 11.0533 214.729 10.584C214.942 10.4987 215.156 10.52 215.369 10.648C215.625 10.7333 215.881 10.8187 216.137 10.904C216.393 10.9893 216.734 11.1387 217.161 11.352C217.63 11.5653 217.95 11.7787 218.121 11.992C218.292 12.2053 218.505 12.3547 218.761 12.44C219.017 12.5253 219.145 12.7173 219.145 13.016C219.145 13.3573 218.974 13.784 218.633 14.296C218.334 14.808 218.014 15.2773 217.673 15.704C216.308 17.1973 214.921 18.84 213.513 20.632C213.641 20.8453 213.748 21.0587 213.833 21.272C213.961 21.4853 214.089 21.6987 214.217 21.912C214.43 22.2533 214.644 22.552 214.857 22.808C215.07 23.0213 215.22 23.2987 215.305 23.64C215.305 25.688 215.348 27.9493 215.433 30.424C215.561 32.8987 215.86 35.416 216.329 37.976C216.329 38.1893 216.265 38.4453 216.137 38.744C216.052 39 215.988 39.2987 215.945 39.64C215.945 39.8533 215.924 40.152 215.881 40.536C215.881 40.9627 215.881 41.304 215.881 41.56L215.625 43.096C214.516 42.328 213.705 41.0693 213.193 39.32C212.681 37.5707 212.34 35.6507 212.169 33.56C212.041 31.4267 212.02 29.3147 212.105 27.224C212.19 25.1333 212.297 23.3627 212.425 21.912C210.804 23.96 209.161 26.0293 207.497 28.12C205.833 30.2107 204.19 32.2373 202.569 34.2ZM228.937 46.424C229.62 45.9973 230.174 45.6133 230.601 45.272C231.07 44.9733 231.54 44.5893 232.009 44.12C231.924 43.7787 231.796 43.3947 231.625 42.968C231.454 42.584 231.134 42.1573 230.665 41.688C230.068 42.6693 229.62 43.544 229.321 44.312C229.065 45.08 228.937 45.784 228.937 46.424Z" fill="black"/>
</svg>
